<svg xmlns="http://www.w3.org/2000/svg" width="48" height="40.97" viewBox="0 0 48 40.97">
  <metadata><?xpacket begin="﻿" id="W5M0MpCehiHzreSzNTczkc9d"?>
<x:xmpmeta xmlns:x="adobe:ns:meta/" x:xmptk="Adobe XMP Core 5.6-c142 79.160924, 2017/07/13-01:06:39        ">
   <rdf:RDF xmlns:rdf="http://www.w3.org/1999/02/22-rdf-syntax-ns#">
      <rdf:Description rdf:about=""/>
   </rdf:RDF>
</x:xmpmeta>
                                                                                                    
                                                                                                    
                                                                                                    
                                                                                                    
                                                                                                    
                                                                                                    
                                                                                                    
                                                                                                    
                                                                                                    
                                                                                                    
                                                                                                    
                                                                                                    
                                                                                                    
                                                                                                    
                                                                                                    
                                                                                                    
                                                                                                    
                                                                                                    
                                                                                                    
                                                                                                    
                           
<?xpacket end="w"?></metadata>
<defs>
    <style>
      .cls-1 {
        fill: #6f6f6f;
        fill-rule: evenodd;
      }
    </style>
  </defs>
  <path id="heart" class="cls-1" d="M575.974,1174.17c5.968,0,10.807,4.43,10.807,9.9a9.477,9.477,0,0,1-3.328,7.13L566,1207.86l-17.767-16.94a9.456,9.456,0,0,1-3.014-6.85c0-5.47,4.838-9.9,10.807-9.9A11.07,11.07,0,0,1,566,1180.5a10.742,10.742,0,0,1,9.95-6.35m0.647-3.14a13.4,13.4,0,0,0-10.6,4.7,13.4,13.4,0,0,0-10.6-4.7c-7.391,0-13.4,5.72-13.4,12.76a12.387,12.387,0,0,0,3.737,8.83l18.9,18.08,1.362,1.3,1.361-1.3,18.544-17.74a12.338,12.338,0,0,0,4.1-9.17c0-7.04-6.012-12.76-13.4-12.76h0Z" transform="translate(-542 -1171)"/>
</svg>
